<?xml version="1.0" encoding="utf-8"?>
<!-- Generator: Adobe Illustrator 25.0.1, SVG Export Plug-In . SVG Version: 6.00 Build 0)  -->
<svg version="1.1" id="Layer_1" xmlns="http://www.w3.org/2000/svg" xmlns:xlink="http://www.w3.org/1999/xlink" x="0px" y="0px"
	 viewBox="0 0 154.13 32.31" style="enable-background:new 0 0 154.13 32.31;" xml:space="preserve">
<style type="text/css">
	.st0{opacity:0.24;fill:#00AEEF;}
	.st1{fill:#00AEEF;}
	.st2{fill:#19202C;}
</style>
<g id="f">
	<path class="st0" d="M8.45,20.03L8.45,20.03c1.16-1.16,3.03-1.16,4.19,0l5.59,5.59c1.16,1.16,1.16,3.03,0,4.19l0,0
		c-1.16,1.16-3.03,1.16-4.19,0l-5.59-5.59C7.3,23.06,7.3,21.18,8.45,20.03z"/>
	<path class="st0" d="M2.05,16.56L2.05,16.56c0-1.64,1.33-2.96,2.96-2.96l11.14,0c1.64,0,2.96,1.33,2.96,2.96v0
		c0,1.64-1.33,2.96-2.96,2.96H5.01C3.37,19.53,2.05,18.2,2.05,16.56z"/>
	<path class="st1" d="M2.87,18.63L2.87,18.63c-1.16-1.16-1.16-3.03,0-4.19L15.44,1.87c1.16-1.16,3.03-1.16,4.19,0l0,0
		c1.16,1.16,1.16,3.03,0,4.19L7.06,18.63C5.9,19.79,4.02,19.79,2.87,18.63z"/>
	<path class="st1" d="M8.45,24.22L8.45,24.22c-1.16-1.16-1.16-3.03,0-4.19l5.59-5.59c1.16-1.16,3.03-1.16,4.19,0l0,0
		c1.16,1.16,1.16,3.03,0,4.19l-5.59,5.59C11.49,25.37,9.61,25.37,8.45,24.22z"/>
	<circle class="st1" cx="16.14" cy="27.71" r="2.96"/>
</g>
<g>
	<path class="st2" d="M40.28,11.54v5.25h9.19v3.69h-9.19v7.23h-4.6V7.85h15.01v3.69H40.28z"/>
	<path class="st2" d="M66.07,23.45h-9.22l-1.76,4.26h-4.71l8.85-19.86h4.54l8.88,19.86h-4.82L66.07,23.45z M64.62,19.96l-3.15-7.6
		l-3.15,7.6H64.62z"/>
	<path class="st2" d="M92.93,7.85v19.86h-3.77l-9.9-12.06v12.06h-4.54V7.85h3.8l9.87,12.06V7.85H92.93z"/>
	<path class="st2" d="M101.76,11.59H95.4V7.85h17.31v3.74h-6.35v16.11h-4.6V11.59z"/>
	<path class="st2" d="M127.26,23.45h-9.22l-1.76,4.26h-4.71l8.85-19.86h4.54l8.88,19.86h-4.82L127.26,23.45z M125.81,19.96
		l-3.15-7.6l-3.15,7.6H125.81z"/>
	<path class="st2" d="M152,23.96v3.74h-17.36v-2.98l10.89-13.14h-10.67V7.85h16.71v2.98l-10.87,13.14H152z"/>
</g>
</svg>
