<svg width="100" height="100" fill="none" xmlns="http://www.w3.org/2000/svg"><rect opacity=".1" width="100" height="100" rx="30" fill="#2C6D97"/><g clip-path="url(#clip0)"><path d="M45.19 63.656h9.62v12.732h-9.62V63.656z" fill="url(#paint0_linear)"/><path d="M61.155 80.314h-22.31a2.91 2.91 0 110-5.822h22.31a2.91 2.91 0 010 5.822z" fill="url(#paint1_linear)"/><path d="M45.19 67.773l8.614 8.614h1.006V63.656h-9.62v4.117z" fill="url(#paint2_linear)"/><path d="M76.368 67.773H23.632A4.632 4.632 0 0119 63.141V28.914a4.632 4.632 0 014.632-4.632h52.736A4.632 4.632 0 0181 28.914v34.227a4.632 4.632 0 01-4.632 4.632z" fill="url(#paint3_linear)"/><path d="M61.458 24.282l7.019 7.018v32.355h-7.019V24.282z" fill="url(#paint4_linear)"/><path d="M72.873 63.655H27.129a3.874 3.874 0 01-3.874-3.873V32.273A3.874 3.874 0 0127.13 28.4h45.744a3.874 3.874 0 013.874 3.874v27.508a3.874 3.874 0 01-3.874 3.873z" fill="url(#paint5_linear)"/><path d="M65.576 28.4h-4.118v35.255h7.019V31.3l-2.9-2.9z" fill="url(#paint6_linear)"/><path d="M19 59.238v3.903a4.632 4.632 0 004.632 4.632h52.736A4.632 4.632 0 0081 63.141v-3.903H19z" fill="url(#paint7_linear)"/><path d="M49.753 35.727l3.86 3.86v24.069h-3.86V35.728z" fill="url(#paint8_linear)"/><path d="M72.12 44.458l3.86 3.86v12.427a2.91 2.91 0 01-2.91 2.91h-.95V44.458z" fill="url(#paint9_linear)"/><path d="M50.246 63.656h-8.454V36.745c0-.899.728-1.627 1.626-1.627h5.202c.898 0 1.627.728 1.627 1.627v26.91z" fill="url(#paint10_linear)"/><path d="M61.458 63.656h-8.455V21.313c0-.898.728-1.627 1.627-1.627h5.201c.898 0 1.627.728 1.627 1.627v42.343z" fill="url(#paint11_linear)"/><path d="M72.672 63.656h-8.454v-17.99c0-.898.728-1.626 1.626-1.626h5.202c.898 0 1.626.728 1.626 1.626v17.99z" fill="url(#paint12_linear)"/><path d="M30.047 38.586h-3.932a.648.648 0 01-.648-.648v-1.77c0-.357.29-.648.648-.648h3.932c.358 0 .648.29.648.649v1.769c0 .358-.29.648-.648.648zm9.545 0h-7.013a.648.648 0 01-.648-.648v-1.77c0-.357.29-.648.648-.648h7.013c.358 0 .648.29.648.649v1.769c0 .358-.29.648-.648.648zm-3.932 4.618h3.931c.358 0 .648-.29.648-.648v-1.77a.648.648 0 00-.648-.648H35.66a.648.648 0 00-.648.648v1.77c0 .358.29.648.648.648zm-9.545 0h7.013c.358 0 .648-.29.648-.648v-1.77a.648.648 0 00-.648-.648h-7.013a.648.648 0 00-.648.648v1.77c0 .358.29.648.648.648zm3.932 4.617h-3.932a.648.648 0 01-.648-.648v-1.77c0-.357.29-.647.648-.647h3.932c.358 0 .648.29.648.648v1.77c0 .357-.29.647-.648.647z" fill="#7ACBFF"/></g><defs><linearGradient id="paint0_linear" x1="45.19" y1="70.022" x2="54.81" y2="70.022" gradientUnits="userSpaceOnUse"><stop stop-color="#2F73A0"/><stop offset="1" stop-color="#174461"/></linearGradient><linearGradient id="paint1_linear" x1="50" y1="75.026" x2="50" y2="79.054" gradientUnits="userSpaceOnUse"><stop stop-color="#2F73A0"/><stop offset="1" stop-color="#174461"/></linearGradient><linearGradient id="paint2_linear" x1="52.639" y1="73.058" x2="49.843" y2="65.278" gradientUnits="userSpaceOnUse"><stop stop-color="#092A40" stop-opacity="0"/><stop offset="1" stop-color="#092A40"/></linearGradient><linearGradient id="paint3_linear" x1="34.538" y1="30.566" x2="67.244" y2="63.272" gradientUnits="userSpaceOnUse"><stop stop-color="#2F73A0"/><stop offset="1" stop-color="#174461"/></linearGradient><linearGradient id="paint4_linear" x1="59.009" y1="42.316" x2="53.964" y2="38.912" gradientUnits="userSpaceOnUse"><stop stop-color="#092A40" stop-opacity="0"/><stop offset="1" stop-color="#092A40"/></linearGradient><linearGradient id="paint5_linear" x1="36.989" y1="33.016" x2="64.513" y2="60.54" gradientUnits="userSpaceOnUse"><stop stop-color="#EDF5FF"/><stop offset="1" stop-color="#C7E9FF"/></linearGradient><linearGradient id="paint6_linear" x1="67.505" y1="46.028" x2="59.785" y2="46.028" gradientUnits="userSpaceOnUse"><stop stop-color="#7ACBFF" stop-opacity="0"/><stop offset="1" stop-color="#2F73A0"/></linearGradient><linearGradient id="paint7_linear" x1="50" y1="62.293" x2="50" y2="67.788" gradientUnits="userSpaceOnUse"><stop stop-color="#092A40" stop-opacity="0"/><stop offset="1" stop-color="#092A40"/></linearGradient><linearGradient id="paint8_linear" x1="52.716" y1="49.692" x2="49.389" y2="49.692" gradientUnits="userSpaceOnUse"><stop stop-color="#7ACBFF" stop-opacity="0"/><stop offset="1" stop-color="#2F73A0"/></linearGradient><linearGradient id="paint9_linear" x1="75.084" y1="54.056" x2="71.757" y2="54.056" gradientUnits="userSpaceOnUse"><stop stop-color="#7ACBFF" stop-opacity="0"/><stop offset="1" stop-color="#2F73A0"/></linearGradient><linearGradient id="paint10_linear" x1="40.451" y1="44.295" x2="52.23" y2="56.074" gradientUnits="userSpaceOnUse"><stop stop-color="#FF755C"/><stop offset="1" stop-color="#FF4181"/></linearGradient><linearGradient id="paint11_linear" x1="49.277" y1="34.194" x2="66.1" y2="51.017" gradientUnits="userSpaceOnUse"><stop stop-color="#FFCE47"/><stop offset="1" stop-color="#FF9356"/></linearGradient><linearGradient id="paint12_linear" x1="64.255" y1="50.134" x2="73.119" y2="58.998" gradientUnits="userSpaceOnUse"><stop stop-color="#7ACBFF"/><stop offset="1" stop-color="#45A2E0"/></linearGradient><clipPath id="clip0"><path fill="#fff" transform="translate(19 19)" d="M0 0h62v62H0z"/></clipPath></defs></svg>