<svg width="100" height="100" fill="none" xmlns="http://www.w3.org/2000/svg"><rect opacity=".1" width="100" height="100" rx="30" fill="#FFB84D"/><g clip-path="url(#clip0)"><path d="M19.077 74.747h14.167c.595 0 1.077-.482 1.077-1.077v-2.153c0-.595-.482-1.077-1.077-1.077H19.077c-.595 0-1.077.482-1.077 1.077v2.153c0 .595.482 1.077 1.077 1.077z" fill="url(#paint0_linear)"/><path d="M38.322 57.334l-4.516 12.634.18 3.103c-.278.779 3.3.377 3.3.377l12.634-4.516c3.213-3.213-8.385-14.81-11.598-11.598z" fill="url(#paint1_linear)"/><path d="M77.925 40.929L49.921 68.932a3.727 3.727 0 00-1.419-1.383c-.844-.467-2.165-.211-3.08.066a.378.378 0 01-.455-.203.38.38 0 01-.004-.326c.002 0 .002-.002.002-.002.051-.117.096-.235.134-.354l.05-.171c.003-.004.003-.007.003-.01.048-.185.082-.37.101-.558.007-.061.01-.124.015-.186a3.618 3.618 0 00-1.06-2.758 3.623 3.623 0 00-2.758-1.06c-.062.004-.126.008-.187.014a3.532 3.532 0 00-.567.104l-.172.05c-.061.02-.12.041-.18.064a2.937 2.937 0 00-.17.07c-.003 0-.003 0-.005.002a.38.38 0 01-.326-.004.378.378 0 01-.203-.455c.277-.915.533-2.233.065-3.078a3.706 3.706 0 00-1.382-1.42l28.002-28.005a2.242 2.242 0 013.17 0l1.652 1.653 5.125 5.125 1.653 1.653a2.242 2.242 0 010 3.169z" fill="url(#paint2_linear)"/><path d="M76.271 36.107L44.967 67.412a.38.38 0 01-.005-.326c.003 0 .003-.003.003-.003.05-.116.27-.906.287-1.092a3.623 3.623 0 00-1.467-3.307 3.623 3.623 0 00-3.08-.582c-.004 0-.006 0-.01.003-.057.015-.466.159-.523.184l-.004.002a.38.38 0 01-.326-.004l31.305-31.305 5.124 5.125z" fill="url(#paint3_linear)"/><path d="M35.817 71.437a8.074 8.074 0 00-2.011-1.47l-1.24 3.468a.98.98 0 001.253 1.252l3.467-1.239a8.068 8.068 0 00-1.47-2.01z" fill="url(#paint4_linear)"/><path d="M81.712 30.923L76.33 25.54a4.396 4.396 0 00-6.217 0l-2.204 2.204 11.6 11.599 2.203-2.204a4.396 4.396 0 000-6.217z" fill="url(#paint5_linear)"/><path d="M77.924 37.76l-1.653-1.653-5.124-5.125-1.654-1.653a2.242 2.242 0 00-3.168 0l-1.09 1.09v23.199l12.69-12.689a2.242 2.242 0 000-3.169z" fill="url(#paint6_linear)"/><path d="M76.093 41.412l-10.37-10.37a1.673 1.673 0 010-2.367l1.508-1.509a1.673 1.673 0 012.367 0l10.37 10.371a1.673 1.673 0 010 2.366l-1.509 1.51a1.673 1.673 0 01-2.366 0z" fill="url(#paint7_linear)"/><path d="M30.466 51.577a2.43 2.43 0 01-3.437 0l-4.659-4.66a2.43 2.43 0 013.437-3.436l4.659 4.659a2.43 2.43 0 010 3.437z" fill="url(#paint8_linear)"/><path d="M29.449 61.313a2.43 2.43 0 01-2.43 2.43H20.43a2.43 2.43 0 010-4.86h6.588a2.43 2.43 0 012.43 2.43z" fill="url(#paint9_linear)"/><path d="M40.202 50.56a2.43 2.43 0 01-2.43-2.43v-6.59a2.43 2.43 0 014.86 0v6.59a2.43 2.43 0 01-2.43 2.43z" fill="url(#paint10_linear)"/></g><defs><linearGradient id="paint0_linear" x1="26.16" y1="70.394" x2="26.16" y2="74.627" gradientUnits="userSpaceOnUse"><stop stop-color="#45A2E0"/><stop offset="1" stop-color="#2F73A0"/></linearGradient><linearGradient id="paint1_linear" x1="34.432" y1="61.179" x2="46.028" y2="72.775" gradientUnits="userSpaceOnUse"><stop stop-color="#FFE0EA"/><stop offset="1" stop-color="#FFC0D5"/></linearGradient><linearGradient id="paint2_linear" x1="38.323" y1="48.803" x2="78.581" y2="48.803" gradientUnits="userSpaceOnUse"><stop stop-color="#FFCE47"/><stop offset="1" stop-color="#FF9356"/></linearGradient><linearGradient id="paint3_linear" x1="62.869" y1="54.009" x2="51.161" y2="42.301" gradientUnits="userSpaceOnUse"><stop stop-color="#FFCE47"/><stop offset="1" stop-color="#FF9356"/></linearGradient><linearGradient id="paint4_linear" x1="33.924" y1="72.583" x2="36.883" y2="75.541" gradientUnits="userSpaceOnUse"><stop stop-color="#2F73A0"/><stop offset="1" stop-color="#174461"/></linearGradient><linearGradient id="paint5_linear" x1="76.443" y1="29.66" x2="74.389" y2="33.356" gradientUnits="userSpaceOnUse"><stop stop-color="#FF755C"/><stop offset="1" stop-color="#FF4181"/></linearGradient><linearGradient id="paint6_linear" x1="66.187" y1="46.839" x2="71.709" y2="35.522" gradientUnits="userSpaceOnUse"><stop stop-color="#FF9356" stop-opacity="0"/><stop offset="1" stop-color="#FF755C"/></linearGradient><linearGradient id="paint7_linear" x1="73.534" y1="33.03" x2="71.723" y2="36.289" gradientUnits="userSpaceOnUse"><stop stop-color="#EDF5FF"/><stop offset="1" stop-color="#C7E9FF"/></linearGradient><linearGradient id="paint8_linear" x1="26.698" y1="47.24" x2="25.007" y2="48.931" gradientUnits="userSpaceOnUse"><stop stop-color="#FFCE47"/><stop offset="1" stop-color="#FF9356"/></linearGradient><linearGradient id="paint9_linear" x1="23.724" y1="60.886" x2="23.724" y2="63.277" gradientUnits="userSpaceOnUse"><stop stop-color="#FF755C"/><stop offset="1" stop-color="#FF4181"/></linearGradient><linearGradient id="paint10_linear" x1="44.23" y1="44.835" x2="35.819" y2="44.835" gradientUnits="userSpaceOnUse"><stop stop-color="#E4E08E"/><stop offset="1" stop-color="#6FA953"/></linearGradient><clipPath id="clip0"><path fill="#fff" transform="translate(18 17)" d="M0 0h65v65H0z"/></clipPath></defs></svg>