<svg width="100" height="100" fill="none" xmlns="http://www.w3.org/2000/svg"><rect opacity=".15" width="100" height="100" rx="30" fill="#8EEBBB"/><g clip-path="url(#clip0)"><path d="M60.216 38.876a20.396 20.396 0 0120.78 20.057 20.56 20.56 0 01-.476 4.831c-.58 2.627-.924 5.301-.924 7.992v5.2c0 .797-.646 1.443-1.443 1.443h-5.2c-2.692 0-5.365.345-7.993.924a20.518 20.518 0 01-4.83.476A20.396 20.396 0 0140.071 59.02c.168-11.05 9.094-19.976 20.144-20.145z" fill="url(#paint0_linear)"/><path d="M60.216 38.876a20.396 20.396 0 0120.78 20.057 20.56 20.56 0 01-.476 4.831c-.58 2.627-.924 5.301-.924 7.992v5.2c0 .797-.646 1.443-1.443 1.443h-5.2c-2.692 0-5.365.345-7.993.924a20.518 20.518 0 01-4.83.476A20.396 20.396 0 0140.071 59.02c.168-11.05 9.094-19.976 20.144-20.145z" fill="url(#paint1_linear)"/><path d="M44.32 20.2a24.848 24.848 0 00-25.316 24.435 25.104 25.104 0 00.58 5.886c.707 3.2 1.126 6.458 1.126 9.736v6.336c0 .97.787 1.757 1.758 1.757h6.336c3.278 0 6.535.42 9.736 1.126 1.89.417 3.861.62 5.886.58A24.848 24.848 0 0068.86 44.741C68.655 31.28 57.78 20.406 44.32 20.2z" fill="url(#paint2_linear)"/><path d="M35.008 43.792a3.847 3.847 0 00-2.81-1.218 3.862 3.862 0 00-3.862 3.862c0 1.109.47 2.106 1.218 2.81l8.33 8.33a3.847 3.847 0 002.81 1.219 3.862 3.862 0 003.863-3.862c0-1.109-.47-2.106-1.219-2.81l-8.33-8.33z" fill="url(#paint3_linear)"/><path d="M32.197 50.297a3.862 3.862 0 100-7.723 3.862 3.862 0 000 7.723z" fill="#fff"/><path d="M45.93 43.792a3.847 3.847 0 00-2.81-1.218 3.862 3.862 0 00-3.862 3.862c0 1.109.47 2.106 1.218 2.81l8.33 8.33a3.847 3.847 0 002.81 1.219 3.862 3.862 0 003.863-3.862c0-1.109-.47-2.106-1.219-2.81l-8.33-8.33z" fill="url(#paint4_linear)"/><path d="M43.119 50.297a3.862 3.862 0 100-7.723 3.862 3.862 0 000 7.723z" fill="#fff"/><path d="M56.85 43.792a3.847 3.847 0 00-2.81-1.218 3.862 3.862 0 00-3.861 3.862c0 1.109.47 2.106 1.218 2.81l8.33 8.33a3.847 3.847 0 002.81 1.219 3.862 3.862 0 003.863-3.862c0-1.109-.47-2.106-1.219-2.81l-8.33-8.33z" fill="url(#paint5_linear)"/><path d="M54.04 50.297a3.862 3.862 0 100-7.723 3.862 3.862 0 000 7.723z" fill="#fff"/></g><defs><linearGradient id="paint0_linear" x1="56.403" y1="55.208" x2="86.45" y2="85.254" gradientUnits="userSpaceOnUse"><stop stop-color="#A7F3CE"/><stop offset="1" stop-color="#61DB99"/></linearGradient><linearGradient id="paint1_linear" x1="66.239" y1="65.043" x2="53.477" y2="52.282" gradientUnits="userSpaceOnUse"><stop stop-color="#61DB99" stop-opacity="0"/><stop offset="1" stop-color="#009E74"/></linearGradient><linearGradient id="paint2_linear" x1="34.823" y1="41.098" x2="66.545" y2="72.821" gradientUnits="userSpaceOnUse"><stop stop-color="#62E1FB"/><stop offset="1" stop-color="#00A2F3"/></linearGradient><linearGradient id="paint3_linear" x1="40.788" y1="55.027" x2="24.086" y2="38.325" gradientUnits="userSpaceOnUse"><stop stop-color="#00A2F3" stop-opacity="0"/><stop offset="1" stop-color="#0075CD"/></linearGradient><linearGradient id="paint4_linear" x1="51.709" y1="55.027" x2="35.008" y2="38.325" gradientUnits="userSpaceOnUse"><stop stop-color="#00A2F3" stop-opacity="0"/><stop offset="1" stop-color="#0075CD"/></linearGradient><linearGradient id="paint5_linear" x1="62.63" y1="55.027" x2="45.928" y2="38.325" gradientUnits="userSpaceOnUse"><stop stop-color="#00A2F3" stop-opacity="0"/><stop offset="1" stop-color="#0075CD"/></linearGradient><clipPath id="clip0"><path fill="#fff" transform="translate(19 19)" d="M0 0h62v62H0z"/></clipPath></defs></svg>